<?xml version="1.0" encoding="UTF-8"?>
<svg xmlns="http://www.w3.org/2000/svg" xmlns:xlink="http://www.w3.org/1999/xlink" width="720" height="360" viewBox="0 0 720 360">
<rect x="-72" y="-36" width="864" height="432" fill="rgb(100%, 100%, 100%)" fill-opacity="1"/>
<path fill="none" stroke-width="1.066978" stroke-linecap="round" stroke-linejoin="round" stroke="rgb(100%, 100%, 100%)" stroke-opacity="1" stroke-miterlimit="10" d="M 0 360 L 720 360 L 720 0 L 0 0 Z M 0 360 "/>
<path fill-rule="nonzero" fill="rgb(74.509804%, 74.509804%, 74.509804%)" fill-opacity="1" d="M 10.851562 59.6875 L 118.28125 59.6875 L 118.28125 35.890625 L 10.851562 35.890625 Z M 10.851562 59.6875 "/>
<path fill-rule="nonzero" fill="rgb(0%, 39.215686%, 0%)" fill-opacity="1" d="M 10.851562 33.242188 L 83.269531 33.242188 L 83.269531 9.445312 L 10.851562 9.445312 Z M 10.851562 33.242188 "/>
<path fill-rule="nonzero" fill="rgb(74.509804%, 74.509804%, 74.509804%)" fill-opacity="1" d="M 129.023438 59.6875 L 236.453125 59.6875 L 236.453125 35.890625 L 129.023438 35.890625 Z M 129.023438 59.6875 "/>
<path fill-rule="nonzero" fill="rgb(0%, 39.215686%, 0%)" fill-opacity="1" d="M 129.023438 33.242188 L 231.195312 33.242188 L 231.195312 9.445312 L 129.023438 9.445312 Z M 129.023438 33.242188 "/>
<path fill-rule="nonzero" fill="rgb(74.509804%, 74.509804%, 74.509804%)" fill-opacity="1" d="M 247.199219 59.6875 L 333.1875 59.6875 L 333.1875 35.890625 L 247.199219 35.890625 Z M 247.199219 59.6875 "/>
<path fill-rule="nonzero" fill="rgb(0%, 39.215686%, 0%)" fill-opacity="1" d="M 247.199219 33.242188 L 354.628906 33.242188 L 354.628906 9.445312 L 247.199219 9.445312 Z M 247.199219 33.242188 "/>
<path fill-rule="nonzero" fill="rgb(74.509804%, 74.509804%, 74.509804%)" fill-opacity="1" d="M 365.371094 59.6875 L 472.800781 59.6875 L 472.800781 35.890625 L 365.371094 35.890625 Z M 365.371094 59.6875 "/>
<path fill-rule="nonzero" fill="rgb(0%, 39.215686%, 0%)" fill-opacity="1" d="M 365.371094 33.242188 L 460.734375 33.242188 L 460.734375 9.445312 L 365.371094 9.445312 Z M 365.371094 33.242188 "/>
<path fill-rule="nonzero" fill="rgb(74.509804%, 74.509804%, 74.509804%)" fill-opacity="1" d="M 483.546875 59.6875 L 582.417969 59.6875 L 582.417969 35.890625 L 483.546875 35.890625 Z M 483.546875 59.6875 "/>
<path fill-rule="nonzero" fill="rgb(0%, 39.215686%, 0%)" fill-opacity="1" d="M 483.546875 33.242188 L 590.976562 33.242188 L 590.976562 9.445312 L 483.546875 9.445312 Z M 483.546875 33.242188 "/>
<path fill-rule="nonzero" fill="rgb(74.509804%, 74.509804%, 74.509804%)" fill-opacity="1" d="M 601.71875 59.6875 L 709.148438 59.6875 L 709.148438 35.890625 L 601.71875 35.890625 Z M 601.71875 59.6875 "/>
<path fill-rule="nonzero" fill="rgb(0%, 39.215686%, 0%)" fill-opacity="1" d="M 601.71875 33.242188 L 682.417969 33.242188 L 682.417969 9.445312 L 601.71875 9.445312 Z M 601.71875 33.242188 "/>
<path fill-rule="nonzero" fill="rgb(74.509804%, 74.509804%, 74.509804%)" fill-opacity="1" d="M 10.851562 117.859375 L 118.28125 117.859375 L 118.28125 94.0625 L 10.851562 94.0625 Z M 10.851562 117.859375 "/>
<path fill-rule="nonzero" fill="rgb(0%, 39.215686%, 0%)" fill-opacity="1" d="M 10.851562 91.417969 L 115.949219 91.417969 L 115.949219 67.621094 L 10.851562 67.621094 Z M 10.851562 91.417969 "/>
<path fill-rule="nonzero" fill="rgb(74.509804%, 74.509804%, 74.509804%)" fill-opacity="1" d="M 129.023438 117.859375 L 236.453125 117.859375 L 236.453125 94.0625 L 129.023438 94.0625 Z M 129.023438 117.859375 "/>
<path fill-rule="nonzero" fill="rgb(0%, 39.215686%, 0%)" fill-opacity="1" d="M 129.023438 91.417969 L 219.164062 91.417969 L 219.164062 67.621094 L 129.023438 67.621094 Z M 129.023438 91.417969 "/>
<path fill-rule="nonzero" fill="rgb(74.509804%, 74.509804%, 74.509804%)" fill-opacity="1" d="M 247.199219 117.859375 L 347.546875 117.859375 L 347.546875 94.0625 L 247.199219 94.0625 Z M 247.199219 117.859375 "/>
<path fill-rule="nonzero" fill="rgb(0%, 39.215686%, 0%)" fill-opacity="1" d="M 247.199219 91.417969 L 354.628906 91.417969 L 354.628906 67.621094 L 247.199219 67.621094 Z M 247.199219 91.417969 "/>
<path fill-rule="nonzero" fill="rgb(74.509804%, 74.509804%, 74.509804%)" fill-opacity="1" d="M 365.371094 117.859375 L 472.800781 117.859375 L 472.800781 94.0625 L 365.371094 94.0625 Z M 365.371094 117.859375 "/>
<path fill-rule="nonzero" fill="rgb(0%, 39.215686%, 0%)" fill-opacity="1" d="M 365.371094 91.417969 L 444.496094 91.417969 L 444.496094 67.621094 L 365.371094 67.621094 Z M 365.371094 91.417969 "/>
<path fill-rule="nonzero" fill="rgb(74.509804%, 74.509804%, 74.509804%)" fill-opacity="1" d="M 483.546875 117.859375 L 590.976562 117.859375 L 590.976562 94.0625 L 483.546875 94.0625 Z M 483.546875 117.859375 "/>
<path fill-rule="nonzero" fill="rgb(0%, 39.215686%, 0%)" fill-opacity="1" d="M 483.546875 91.417969 L 565.429688 91.417969 L 565.429688 67.621094 L 483.546875 67.621094 Z M 483.546875 91.417969 "/>
<path fill-rule="nonzero" fill="rgb(74.509804%, 74.509804%, 74.509804%)" fill-opacity="1" d="M 601.71875 117.859375 L 709.148438 117.859375 L 709.148438 94.0625 L 601.71875 94.0625 Z M 601.71875 117.859375 "/>
<path fill-rule="nonzero" fill="rgb(0%, 39.215686%, 0%)" fill-opacity="1" d="M 601.71875 91.417969 L 680.289062 91.417969 L 680.289062 67.621094 L 601.71875 67.621094 Z M 601.71875 91.417969 "/>
<path fill-rule="nonzero" fill="rgb(74.509804%, 74.509804%, 74.509804%)" fill-opacity="1" d="M 10.851562 176.035156 L 118.28125 176.035156 L 118.28125 152.238281 L 10.851562 152.238281 Z M 10.851562 176.035156 "/>
<path fill-rule="nonzero" fill="rgb(0%, 39.215686%, 0%)" fill-opacity="1" d="M 10.851562 149.589844 L 74.585938 149.589844 L 74.585938 125.792969 L 10.851562 125.792969 Z M 10.851562 149.589844 "/>
<path fill-rule="nonzero" fill="rgb(74.509804%, 74.509804%, 74.509804%)" fill-opacity="1" d="M 129.023438 176.035156 L 231.605469 176.035156 L 231.605469 152.238281 L 129.023438 152.238281 Z M 129.023438 176.035156 "/>
<path fill-rule="nonzero" fill="rgb(0%, 39.215686%, 0%)" fill-opacity="1" d="M 129.023438 149.589844 L 236.453125 149.589844 L 236.453125 125.792969 L 129.023438 125.792969 Z M 129.023438 149.589844 "/>
<path fill-rule="nonzero" fill="rgb(74.509804%, 74.509804%, 74.509804%)" fill-opacity="1" d="M 247.199219 176.035156 L 354.628906 176.035156 L 354.628906 152.238281 L 247.199219 152.238281 Z M 247.199219 176.035156 "/>
<path fill-rule="nonzero" fill="rgb(0%, 39.215686%, 0%)" fill-opacity="1" d="M 247.199219 149.589844 L 342.09375 149.589844 L 342.09375 125.792969 L 247.199219 125.792969 Z M 247.199219 149.589844 "/>
<path fill-rule="nonzero" fill="rgb(74.509804%, 74.509804%, 74.509804%)" fill-opacity="1" d="M 365.371094 176.035156 L 472.800781 176.035156 L 472.800781 152.238281 L 365.371094 152.238281 Z M 365.371094 176.035156 "/>
<path fill-rule="nonzero" fill="rgb(0%, 39.215686%, 0%)" fill-opacity="1" d="M 365.371094 149.589844 L 462.585938 149.589844 L 462.585938 125.792969 L 365.371094 125.792969 Z M 365.371094 149.589844 "/>
<path fill-rule="nonzero" fill="rgb(74.509804%, 74.509804%, 74.509804%)" fill-opacity="1" d="M 483.546875 176.035156 L 590.976562 176.035156 L 590.976562 152.238281 L 483.546875 152.238281 Z M 483.546875 176.035156 "/>
<path fill-rule="nonzero" fill="rgb(0%, 39.215686%, 0%)" fill-opacity="1" d="M 483.546875 149.589844 L 562.148438 149.589844 L 562.148438 125.792969 L 483.546875 125.792969 Z M 483.546875 149.589844 "/>
<path fill-rule="nonzero" fill="rgb(74.509804%, 74.509804%, 74.509804%)" fill-opacity="1" d="M 601.71875 176.035156 L 709.148438 176.035156 L 709.148438 152.238281 L 601.71875 152.238281 Z M 601.71875 176.035156 "/>
<path fill-rule="nonzero" fill="rgb(0%, 39.215686%, 0%)" fill-opacity="1" d="M 601.71875 149.589844 L 681.933594 149.589844 L 681.933594 125.792969 L 601.71875 125.792969 Z M 601.71875 149.589844 "/>
<path fill-rule="nonzero" fill="rgb(74.509804%, 74.509804%, 74.509804%)" fill-opacity="1" d="M 10.851562 234.207031 L 118.28125 234.207031 L 118.28125 210.410156 L 10.851562 210.410156 Z M 10.851562 234.207031 "/>
<path fill-rule="nonzero" fill="rgb(0%, 39.215686%, 0%)" fill-opacity="1" d="M 10.851562 207.765625 L 87.484375 207.765625 L 87.484375 183.96875 L 10.851562 183.96875 Z M 10.851562 207.765625 "/>
<path fill-rule="nonzero" fill="rgb(74.509804%, 74.509804%, 74.509804%)" fill-opacity="1" d="M 129.023438 234.207031 L 236.453125 234.207031 L 236.453125 210.410156 L 129.023438 210.410156 Z M 129.023438 234.207031 "/>
<path fill-rule="nonzero" fill="rgb(0%, 39.215686%, 0%)" fill-opacity="1" d="M 129.023438 207.765625 L 220.367188 207.765625 L 220.367188 183.96875 L 129.023438 183.96875 Z M 129.023438 207.765625 "/>
<path fill-rule="nonzero" fill="rgb(74.509804%, 74.509804%, 74.509804%)" fill-opacity="1" d="M 247.199219 234.207031 L 354.628906 234.207031 L 354.628906 210.410156 L 247.199219 210.410156 Z M 247.199219 234.207031 "/>
<path fill-rule="nonzero" fill="rgb(0%, 39.215686%, 0%)" fill-opacity="1" d="M 247.199219 207.765625 L 328.21875 207.765625 L 328.21875 183.96875 L 247.199219 183.96875 Z M 247.199219 207.765625 "/>
<path fill-rule="nonzero" fill="rgb(74.509804%, 74.509804%, 74.509804%)" fill-opacity="1" d="M 365.371094 234.207031 L 472.800781 234.207031 L 472.800781 210.410156 L 365.371094 210.410156 Z M 365.371094 234.207031 "/>
<path fill-rule="nonzero" fill="rgb(0%, 39.215686%, 0%)" fill-opacity="1" d="M 365.371094 207.765625 L 462.835938 207.765625 L 462.835938 183.96875 L 365.371094 183.96875 Z M 365.371094 207.765625 "/>
<path fill-rule="nonzero" fill="rgb(74.509804%, 74.509804%, 74.509804%)" fill-opacity="1" d="M 483.546875 234.207031 L 590.976562 234.207031 L 590.976562 210.410156 L 483.546875 210.410156 Z M 483.546875 234.207031 "/>
<path fill-rule="nonzero" fill="rgb(0%, 39.215686%, 0%)" fill-opacity="1" d="M 483.546875 207.765625 L 551.359375 207.765625 L 551.359375 183.96875 L 483.546875 183.96875 Z M 483.546875 207.765625 "/>
<path fill-rule="nonzero" fill="rgb(74.509804%, 74.509804%, 74.509804%)" fill-opacity="1" d="M 601.71875 234.207031 L 709.148438 234.207031 L 709.148438 210.410156 L 601.71875 210.410156 Z M 601.71875 234.207031 "/>
<path fill-rule="nonzero" fill="rgb(0%, 39.215686%, 0%)" fill-opacity="1" d="M 601.71875 207.765625 L 701.148438 207.765625 L 701.148438 183.96875 L 601.71875 183.96875 Z M 601.71875 207.765625 "/>
<path fill-rule="nonzero" fill="rgb(74.509804%, 74.509804%, 74.509804%)" fill-opacity="1" d="M 10.851562 292.378906 L 118.28125 292.378906 L 118.28125 268.582031 L 10.851562 268.582031 Z M 10.851562 292.378906 "/>
<path fill-rule="nonzero" fill="rgb(0%, 39.215686%, 0%)" fill-opacity="1" d="M 10.851562 265.9375 L 101.941406 265.9375 L 101.941406 242.140625 L 10.851562 242.140625 Z M 10.851562 265.9375 "/>
<path fill-rule="nonzero" fill="rgb(74.509804%, 74.509804%, 74.509804%)" fill-opacity="1" d="M 129.023438 292.378906 L 227.417969 292.378906 L 227.417969 268.582031 L 129.023438 268.582031 Z M 129.023438 292.378906 "/>
<path fill-rule="nonzero" fill="rgb(0%, 39.215686%, 0%)" fill-opacity="1" d="M 129.023438 265.9375 L 236.453125 265.9375 L 236.453125 242.140625 L 129.023438 242.140625 Z M 129.023438 265.9375 "/>
<path fill-rule="nonzero" fill="rgb(74.509804%, 74.509804%, 74.509804%)" fill-opacity="1" d="M 247.199219 292.378906 L 353.628906 292.378906 L 353.628906 268.582031 L 247.199219 268.582031 Z M 247.199219 292.378906 "/>
<path fill-rule="nonzero" fill="rgb(0%, 39.215686%, 0%)" fill-opacity="1" d="M 247.199219 265.9375 L 354.628906 265.9375 L 354.628906 242.140625 L 247.199219 242.140625 Z M 247.199219 265.9375 "/>
<path fill-rule="nonzero" fill="rgb(74.509804%, 74.509804%, 74.509804%)" fill-opacity="1" d="M 365.371094 292.378906 L 472.800781 292.378906 L 472.800781 268.582031 L 365.371094 268.582031 Z M 365.371094 292.378906 "/>
<path fill-rule="nonzero" fill="rgb(0%, 39.215686%, 0%)" fill-opacity="1" d="M 365.371094 265.9375 L 445.519531 265.9375 L 445.519531 242.140625 L 365.371094 242.140625 Z M 365.371094 265.9375 "/>
<path fill-rule="nonzero" fill="rgb(74.509804%, 74.509804%, 74.509804%)" fill-opacity="1" d="M 483.546875 292.378906 L 590.976562 292.378906 L 590.976562 268.582031 L 483.546875 268.582031 Z M 483.546875 292.378906 "/>
<path fill-rule="nonzero" fill="rgb(0%, 39.215686%, 0%)" fill-opacity="1" d="M 483.546875 265.9375 L 572.003906 265.9375 L 572.003906 242.140625 L 483.546875 242.140625 Z M 483.546875 265.9375 "/>
<path fill-rule="nonzero" fill="rgb(74.509804%, 74.509804%, 74.509804%)" fill-opacity="1" d="M 601.71875 292.378906 L 709.148438 292.378906 L 709.148438 268.582031 L 601.71875 268.582031 Z M 601.71875 292.378906 "/>
<path fill-rule="nonzero" fill="rgb(0%, 39.215686%, 0%)" fill-opacity="1" d="M 601.71875 265.9375 L 700.304688 265.9375 L 700.304688 242.140625 L 601.71875 242.140625 Z M 601.71875 265.9375 "/>
<path fill-rule="nonzero" fill="rgb(74.509804%, 74.509804%, 74.509804%)" fill-opacity="1" d="M 10.851562 350.554688 L 118.28125 350.554688 L 118.28125 326.757812 L 10.851562 326.757812 Z M 10.851562 350.554688 "/>
<path fill-rule="nonzero" fill="rgb(0%, 39.215686%, 0%)" fill-opacity="1" d="M 10.851562 324.113281 L 97.695312 324.113281 L 97.695312 300.316406 L 10.851562 300.316406 Z M 10.851562 324.113281 "/>
<path fill-rule="nonzero" fill="rgb(74.509804%, 74.509804%, 74.509804%)" fill-opacity="1" d="M 129.023438 350.554688 L 236.453125 350.554688 L 236.453125 326.757812 L 129.023438 326.757812 Z M 129.023438 350.554688 "/>
<path fill-rule="nonzero" fill="rgb(0%, 39.215686%, 0%)" fill-opacity="1" d="M 129.023438 324.113281 L 216.273438 324.113281 L 216.273438 300.316406 L 129.023438 300.316406 Z M 129.023438 324.113281 "/>
<path fill-rule="nonzero" fill="rgb(74.509804%, 74.509804%, 74.509804%)" fill-opacity="1" d="M 247.199219 350.554688 L 354.628906 350.554688 L 354.628906 326.757812 L 247.199219 326.757812 Z M 247.199219 350.554688 "/>
<path fill-rule="nonzero" fill="rgb(0%, 39.215686%, 0%)" fill-opacity="1" d="M 247.199219 324.113281 L 333.15625 324.113281 L 333.15625 300.316406 L 247.199219 300.316406 Z M 247.199219 324.113281 "/>
<path fill-rule="nonzero" fill="rgb(74.509804%, 74.509804%, 74.509804%)" fill-opacity="1" d="M 365.371094 350.554688 L 447.597656 350.554688 L 447.597656 326.757812 L 365.371094 326.757812 Z M 365.371094 350.554688 "/>
<path fill-rule="nonzero" fill="rgb(0%, 39.215686%, 0%)" fill-opacity="1" d="M 365.371094 324.113281 L 472.800781 324.113281 L 472.800781 300.316406 L 365.371094 300.316406 Z M 365.371094 324.113281 "/>
<path fill-rule="nonzero" fill="rgb(74.509804%, 74.509804%, 74.509804%)" fill-opacity="1" d="M 483.546875 350.554688 L 590.976562 350.554688 L 590.976562 326.757812 L 483.546875 326.757812 Z M 483.546875 350.554688 "/>
<path fill-rule="nonzero" fill="rgb(0%, 39.215686%, 0%)" fill-opacity="1" d="M 483.546875 324.113281 L 554.726562 324.113281 L 554.726562 300.316406 L 483.546875 300.316406 Z M 483.546875 324.113281 "/>
<path fill-rule="nonzero" fill="rgb(74.509804%, 74.509804%, 74.509804%)" fill-opacity="1" d="M 601.71875 350.554688 L 704.464844 350.554688 L 704.464844 326.757812 L 601.71875 326.757812 Z M 601.71875 350.554688 "/>
<path fill-rule="nonzero" fill="rgb(0%, 39.215686%, 0%)" fill-opacity="1" d="M 601.71875 324.113281 L 709.148438 324.113281 L 709.148438 300.316406 L 601.71875 300.316406 Z M 601.71875 324.113281 "/>
</svg>
