<?xml version="1.0" encoding="UTF-8"?>
<svg xmlns="http://www.w3.org/2000/svg" xmlns:xlink="http://www.w3.org/1999/xlink" width="720" height="360" viewBox="0 0 720 360">
<rect x="-72" y="-36" width="864" height="432" fill="rgb(100%, 100%, 100%)" fill-opacity="1"/>
<path fill="none" stroke-width="1.066978" stroke-linecap="round" stroke-linejoin="round" stroke="rgb(100%, 100%, 100%)" stroke-opacity="1" stroke-miterlimit="10" d="M 0 360 L 720 360 L 720 0 L 0 0 Z M 0 360 "/>
<path fill-rule="nonzero" fill="rgb(74.509804%, 74.509804%, 74.509804%)" fill-opacity="1" d="M 10.851562 59.6875 L 93.078125 59.6875 L 93.078125 35.890625 L 10.851562 35.890625 Z M 10.851562 59.6875 "/>
<path fill-rule="nonzero" fill="rgb(0%, 39.215686%, 0%)" fill-opacity="1" d="M 10.851562 33.242188 L 66.28125 33.242188 L 66.28125 9.445312 L 10.851562 9.445312 Z M 10.851562 33.242188 "/>
<path fill-rule="nonzero" fill="rgb(74.509804%, 74.509804%, 74.509804%)" fill-opacity="1" d="M 129.023438 59.6875 L 211.25 59.6875 L 211.25 35.890625 L 129.023438 35.890625 Z M 129.023438 59.6875 "/>
<path fill-rule="nonzero" fill="rgb(0%, 39.215686%, 0%)" fill-opacity="1" d="M 129.023438 33.242188 L 207.226562 33.242188 L 207.226562 9.445312 L 129.023438 9.445312 Z M 129.023438 33.242188 "/>
<path fill-rule="nonzero" fill="rgb(74.509804%, 74.509804%, 74.509804%)" fill-opacity="1" d="M 247.199219 59.6875 L 329.425781 59.6875 L 329.425781 35.890625 L 247.199219 35.890625 Z M 247.199219 59.6875 "/>
<path fill-rule="nonzero" fill="rgb(0%, 39.215686%, 0%)" fill-opacity="1" d="M 247.199219 33.242188 L 349.929688 33.242188 L 349.929688 9.445312 L 247.199219 9.445312 Z M 247.199219 33.242188 "/>
<path fill-rule="nonzero" fill="rgb(74.509804%, 74.509804%, 74.509804%)" fill-opacity="1" d="M 365.371094 59.6875 L 447.597656 59.6875 L 447.597656 35.890625 L 365.371094 35.890625 Z M 365.371094 59.6875 "/>
<path fill-rule="nonzero" fill="rgb(0%, 39.215686%, 0%)" fill-opacity="1" d="M 365.371094 33.242188 L 438.363281 33.242188 L 438.363281 9.445312 L 365.371094 9.445312 Z M 365.371094 33.242188 "/>
<path fill-rule="nonzero" fill="rgb(74.509804%, 74.509804%, 74.509804%)" fill-opacity="1" d="M 483.546875 59.6875 L 565.773438 59.6875 L 565.773438 35.890625 L 483.546875 35.890625 Z M 483.546875 59.6875 "/>
<path fill-rule="nonzero" fill="rgb(0%, 39.215686%, 0%)" fill-opacity="1" d="M 483.546875 33.242188 L 572.890625 33.242188 L 572.890625 9.445312 L 483.546875 9.445312 Z M 483.546875 33.242188 "/>
<path fill-rule="nonzero" fill="rgb(74.509804%, 74.509804%, 74.509804%)" fill-opacity="1" d="M 601.71875 59.6875 L 683.945312 59.6875 L 683.945312 35.890625 L 601.71875 35.890625 Z M 601.71875 59.6875 "/>
<path fill-rule="nonzero" fill="rgb(0%, 39.215686%, 0%)" fill-opacity="1" d="M 601.71875 33.242188 L 663.484375 33.242188 L 663.484375 9.445312 L 601.71875 9.445312 Z M 601.71875 33.242188 "/>
<path fill-rule="nonzero" fill="rgb(74.509804%, 74.509804%, 74.509804%)" fill-opacity="1" d="M 10.851562 117.859375 L 93.078125 117.859375 L 93.078125 94.0625 L 10.851562 94.0625 Z M 10.851562 117.859375 "/>
<path fill-rule="nonzero" fill="rgb(0%, 39.215686%, 0%)" fill-opacity="1" d="M 10.851562 91.417969 L 91.292969 91.417969 L 91.292969 67.621094 L 10.851562 67.621094 Z M 10.851562 91.417969 "/>
<path fill-rule="nonzero" fill="rgb(74.509804%, 74.509804%, 74.509804%)" fill-opacity="1" d="M 129.023438 117.859375 L 211.25 117.859375 L 211.25 94.0625 L 129.023438 94.0625 Z M 129.023438 117.859375 "/>
<path fill-rule="nonzero" fill="rgb(0%, 39.215686%, 0%)" fill-opacity="1" d="M 129.023438 91.417969 L 198.019531 91.417969 L 198.019531 67.621094 L 129.023438 67.621094 Z M 129.023438 91.417969 "/>
<path fill-rule="nonzero" fill="rgb(74.509804%, 74.509804%, 74.509804%)" fill-opacity="1" d="M 247.199219 117.859375 L 329.425781 117.859375 L 329.425781 94.0625 L 247.199219 94.0625 Z M 247.199219 117.859375 "/>
<path fill-rule="nonzero" fill="rgb(0%, 39.215686%, 0%)" fill-opacity="1" d="M 247.199219 91.417969 L 335.230469 91.417969 L 335.230469 67.621094 L 247.199219 67.621094 Z M 247.199219 91.417969 "/>
<path fill-rule="nonzero" fill="rgb(74.509804%, 74.509804%, 74.509804%)" fill-opacity="1" d="M 365.371094 117.859375 L 447.597656 117.859375 L 447.597656 94.0625 L 365.371094 94.0625 Z M 365.371094 117.859375 "/>
<path fill-rule="nonzero" fill="rgb(0%, 39.215686%, 0%)" fill-opacity="1" d="M 365.371094 91.417969 L 425.929688 91.417969 L 425.929688 67.621094 L 365.371094 67.621094 Z M 365.371094 91.417969 "/>
<path fill-rule="nonzero" fill="rgb(74.509804%, 74.509804%, 74.509804%)" fill-opacity="1" d="M 483.546875 117.859375 L 565.773438 117.859375 L 565.773438 94.0625 L 483.546875 94.0625 Z M 483.546875 117.859375 "/>
<path fill-rule="nonzero" fill="rgb(0%, 39.215686%, 0%)" fill-opacity="1" d="M 483.546875 91.417969 L 546.21875 91.417969 L 546.21875 67.621094 L 483.546875 67.621094 Z M 483.546875 91.417969 "/>
<path fill-rule="nonzero" fill="rgb(74.509804%, 74.509804%, 74.509804%)" fill-opacity="1" d="M 601.71875 117.859375 L 683.945312 117.859375 L 683.945312 94.0625 L 601.71875 94.0625 Z M 601.71875 117.859375 "/>
<path fill-rule="nonzero" fill="rgb(0%, 39.215686%, 0%)" fill-opacity="1" d="M 601.71875 91.417969 L 661.855469 91.417969 L 661.855469 67.621094 L 601.71875 67.621094 Z M 601.71875 91.417969 "/>
<path fill-rule="nonzero" fill="rgb(74.509804%, 74.509804%, 74.509804%)" fill-opacity="1" d="M 10.851562 176.035156 L 93.078125 176.035156 L 93.078125 152.238281 L 10.851562 152.238281 Z M 10.851562 176.035156 "/>
<path fill-rule="nonzero" fill="rgb(0%, 39.215686%, 0%)" fill-opacity="1" d="M 10.851562 149.589844 L 59.632812 149.589844 L 59.632812 125.792969 L 10.851562 125.792969 Z M 10.851562 149.589844 "/>
<path fill-rule="nonzero" fill="rgb(74.509804%, 74.509804%, 74.509804%)" fill-opacity="1" d="M 129.023438 176.035156 L 211.25 176.035156 L 211.25 152.238281 L 129.023438 152.238281 Z M 129.023438 176.035156 "/>
<path fill-rule="nonzero" fill="rgb(0%, 39.215686%, 0%)" fill-opacity="1" d="M 129.023438 149.589844 L 215.136719 149.589844 L 215.136719 125.792969 L 129.023438 125.792969 Z M 129.023438 149.589844 "/>
<path fill-rule="nonzero" fill="rgb(74.509804%, 74.509804%, 74.509804%)" fill-opacity="1" d="M 247.199219 176.035156 L 329.425781 176.035156 L 329.425781 152.238281 L 247.199219 152.238281 Z M 247.199219 176.035156 "/>
<path fill-rule="nonzero" fill="rgb(0%, 39.215686%, 0%)" fill-opacity="1" d="M 247.199219 149.589844 L 319.832031 149.589844 L 319.832031 125.792969 L 247.199219 125.792969 Z M 247.199219 149.589844 "/>
<path fill-rule="nonzero" fill="rgb(74.509804%, 74.509804%, 74.509804%)" fill-opacity="1" d="M 365.371094 176.035156 L 447.597656 176.035156 L 447.597656 152.238281 L 365.371094 152.238281 Z M 365.371094 176.035156 "/>
<path fill-rule="nonzero" fill="rgb(0%, 39.215686%, 0%)" fill-opacity="1" d="M 365.371094 149.589844 L 439.777344 149.589844 L 439.777344 125.792969 L 365.371094 125.792969 Z M 365.371094 149.589844 "/>
<path fill-rule="nonzero" fill="rgb(74.509804%, 74.509804%, 74.509804%)" fill-opacity="1" d="M 483.546875 176.035156 L 565.773438 176.035156 L 565.773438 152.238281 L 483.546875 152.238281 Z M 483.546875 176.035156 "/>
<path fill-rule="nonzero" fill="rgb(0%, 39.215686%, 0%)" fill-opacity="1" d="M 483.546875 149.589844 L 543.707031 149.589844 L 543.707031 125.792969 L 483.546875 125.792969 Z M 483.546875 149.589844 "/>
<path fill-rule="nonzero" fill="rgb(74.509804%, 74.509804%, 74.509804%)" fill-opacity="1" d="M 601.71875 176.035156 L 683.945312 176.035156 L 683.945312 152.238281 L 601.71875 152.238281 Z M 601.71875 176.035156 "/>
<path fill-rule="nonzero" fill="rgb(0%, 39.215686%, 0%)" fill-opacity="1" d="M 601.71875 149.589844 L 663.113281 149.589844 L 663.113281 125.792969 L 601.71875 125.792969 Z M 601.71875 149.589844 "/>
<path fill-rule="nonzero" fill="rgb(74.509804%, 74.509804%, 74.509804%)" fill-opacity="1" d="M 10.851562 234.207031 L 93.078125 234.207031 L 93.078125 210.410156 L 10.851562 210.410156 Z M 10.851562 234.207031 "/>
<path fill-rule="nonzero" fill="rgb(0%, 39.215686%, 0%)" fill-opacity="1" d="M 10.851562 207.765625 L 69.503906 207.765625 L 69.503906 183.96875 L 10.851562 183.96875 Z M 10.851562 207.765625 "/>
<path fill-rule="nonzero" fill="rgb(74.509804%, 74.509804%, 74.509804%)" fill-opacity="1" d="M 129.023438 234.207031 L 211.25 234.207031 L 211.25 210.410156 L 129.023438 210.410156 Z M 129.023438 234.207031 "/>
<path fill-rule="nonzero" fill="rgb(0%, 39.215686%, 0%)" fill-opacity="1" d="M 129.023438 207.765625 L 198.9375 207.765625 L 198.9375 183.96875 L 129.023438 183.96875 Z M 129.023438 207.765625 "/>
<path fill-rule="nonzero" fill="rgb(74.509804%, 74.509804%, 74.509804%)" fill-opacity="1" d="M 247.199219 234.207031 L 329.425781 234.207031 L 329.425781 210.410156 L 247.199219 210.410156 Z M 247.199219 234.207031 "/>
<path fill-rule="nonzero" fill="rgb(0%, 39.215686%, 0%)" fill-opacity="1" d="M 247.199219 207.765625 L 309.210938 207.765625 L 309.210938 183.96875 L 247.199219 183.96875 Z M 247.199219 207.765625 "/>
<path fill-rule="nonzero" fill="rgb(74.509804%, 74.509804%, 74.509804%)" fill-opacity="1" d="M 365.371094 234.207031 L 447.597656 234.207031 L 447.597656 210.410156 L 365.371094 210.410156 Z M 365.371094 234.207031 "/>
<path fill-rule="nonzero" fill="rgb(0%, 39.215686%, 0%)" fill-opacity="1" d="M 365.371094 207.765625 L 439.96875 207.765625 L 439.96875 183.96875 L 365.371094 183.96875 Z M 365.371094 207.765625 "/>
<path fill-rule="nonzero" fill="rgb(74.509804%, 74.509804%, 74.509804%)" fill-opacity="1" d="M 483.546875 234.207031 L 565.773438 234.207031 L 565.773438 210.410156 L 483.546875 210.410156 Z M 483.546875 234.207031 "/>
<path fill-rule="nonzero" fill="rgb(0%, 39.215686%, 0%)" fill-opacity="1" d="M 483.546875 207.765625 L 535.449219 207.765625 L 535.449219 183.96875 L 483.546875 183.96875 Z M 483.546875 207.765625 "/>
<path fill-rule="nonzero" fill="rgb(74.509804%, 74.509804%, 74.509804%)" fill-opacity="1" d="M 601.71875 234.207031 L 683.945312 234.207031 L 683.945312 210.410156 L 601.71875 210.410156 Z M 601.71875 234.207031 "/>
<path fill-rule="nonzero" fill="rgb(0%, 39.215686%, 0%)" fill-opacity="1" d="M 601.71875 207.765625 L 677.824219 207.765625 L 677.824219 183.96875 L 601.71875 183.96875 Z M 601.71875 207.765625 "/>
<path fill-rule="nonzero" fill="rgb(74.509804%, 74.509804%, 74.509804%)" fill-opacity="1" d="M 10.851562 292.378906 L 93.078125 292.378906 L 93.078125 268.582031 L 10.851562 268.582031 Z M 10.851562 292.378906 "/>
<path fill-rule="nonzero" fill="rgb(0%, 39.215686%, 0%)" fill-opacity="1" d="M 10.851562 265.9375 L 80.570312 265.9375 L 80.570312 242.140625 L 10.851562 242.140625 Z M 10.851562 265.9375 "/>
<path fill-rule="nonzero" fill="rgb(74.509804%, 74.509804%, 74.509804%)" fill-opacity="1" d="M 129.023438 292.378906 L 211.25 292.378906 L 211.25 268.582031 L 129.023438 268.582031 Z M 129.023438 292.378906 "/>
<path fill-rule="nonzero" fill="rgb(0%, 39.215686%, 0%)" fill-opacity="1" d="M 129.023438 265.9375 L 218.800781 265.9375 L 218.800781 242.140625 L 129.023438 242.140625 Z M 129.023438 265.9375 "/>
<path fill-rule="nonzero" fill="rgb(74.509804%, 74.509804%, 74.509804%)" fill-opacity="1" d="M 247.199219 292.378906 L 329.425781 292.378906 L 329.425781 268.582031 L 247.199219 268.582031 Z M 247.199219 292.378906 "/>
<path fill-rule="nonzero" fill="rgb(0%, 39.215686%, 0%)" fill-opacity="1" d="M 247.199219 265.9375 L 330.199219 265.9375 L 330.199219 242.140625 L 247.199219 242.140625 Z M 247.199219 265.9375 "/>
<path fill-rule="nonzero" fill="rgb(74.509804%, 74.509804%, 74.509804%)" fill-opacity="1" d="M 365.371094 292.378906 L 447.597656 292.378906 L 447.597656 268.582031 L 365.371094 268.582031 Z M 365.371094 292.378906 "/>
<path fill-rule="nonzero" fill="rgb(0%, 39.215686%, 0%)" fill-opacity="1" d="M 365.371094 265.9375 L 426.714844 265.9375 L 426.714844 242.140625 L 365.371094 242.140625 Z M 365.371094 265.9375 "/>
<path fill-rule="nonzero" fill="rgb(74.509804%, 74.509804%, 74.509804%)" fill-opacity="1" d="M 483.546875 292.378906 L 565.773438 292.378906 L 565.773438 268.582031 L 483.546875 268.582031 Z M 483.546875 292.378906 "/>
<path fill-rule="nonzero" fill="rgb(0%, 39.215686%, 0%)" fill-opacity="1" d="M 483.546875 265.9375 L 551.25 265.9375 L 551.25 242.140625 L 483.546875 242.140625 Z M 483.546875 265.9375 "/>
<path fill-rule="nonzero" fill="rgb(74.509804%, 74.509804%, 74.509804%)" fill-opacity="1" d="M 601.71875 292.378906 L 683.945312 292.378906 L 683.945312 268.582031 L 601.71875 268.582031 Z M 601.71875 292.378906 "/>
<path fill-rule="nonzero" fill="rgb(0%, 39.215686%, 0%)" fill-opacity="1" d="M 601.71875 265.9375 L 677.175781 265.9375 L 677.175781 242.140625 L 601.71875 242.140625 Z M 601.71875 265.9375 "/>
<path fill-rule="nonzero" fill="rgb(74.509804%, 74.509804%, 74.509804%)" fill-opacity="1" d="M 10.851562 350.554688 L 93.078125 350.554688 L 93.078125 326.757812 L 10.851562 326.757812 Z M 10.851562 350.554688 "/>
<path fill-rule="nonzero" fill="rgb(0%, 39.215686%, 0%)" fill-opacity="1" d="M 10.851562 324.113281 L 77.320312 324.113281 L 77.320312 300.316406 L 10.851562 300.316406 Z M 10.851562 324.113281 "/>
<path fill-rule="nonzero" fill="rgb(74.509804%, 74.509804%, 74.509804%)" fill-opacity="1" d="M 129.023438 350.554688 L 211.25 350.554688 L 211.25 326.757812 L 129.023438 326.757812 Z M 129.023438 350.554688 "/>
<path fill-rule="nonzero" fill="rgb(0%, 39.215686%, 0%)" fill-opacity="1" d="M 129.023438 324.113281 L 195.804688 324.113281 L 195.804688 300.316406 L 129.023438 300.316406 Z M 129.023438 324.113281 "/>
<path fill-rule="nonzero" fill="rgb(74.509804%, 74.509804%, 74.509804%)" fill-opacity="1" d="M 247.199219 350.554688 L 329.425781 350.554688 L 329.425781 326.757812 L 247.199219 326.757812 Z M 247.199219 350.554688 "/>
<path fill-rule="nonzero" fill="rgb(0%, 39.215686%, 0%)" fill-opacity="1" d="M 247.199219 324.113281 L 312.992188 324.113281 L 312.992188 300.316406 L 247.199219 300.316406 Z M 247.199219 324.113281 "/>
<path fill-rule="nonzero" fill="rgb(74.509804%, 74.509804%, 74.509804%)" fill-opacity="1" d="M 365.371094 350.554688 L 447.597656 350.554688 L 447.597656 326.757812 L 365.371094 326.757812 Z M 365.371094 350.554688 "/>
<path fill-rule="nonzero" fill="rgb(0%, 39.215686%, 0%)" fill-opacity="1" d="M 365.371094 324.113281 L 472.800781 324.113281 L 472.800781 300.316406 L 365.371094 300.316406 Z M 365.371094 324.113281 "/>
<path fill-rule="nonzero" fill="rgb(74.509804%, 74.509804%, 74.509804%)" fill-opacity="1" d="M 483.546875 350.554688 L 565.773438 350.554688 L 565.773438 326.757812 L 483.546875 326.757812 Z M 483.546875 350.554688 "/>
<path fill-rule="nonzero" fill="rgb(0%, 39.215686%, 0%)" fill-opacity="1" d="M 483.546875 324.113281 L 538.027344 324.113281 L 538.027344 300.316406 L 483.546875 300.316406 Z M 483.546875 324.113281 "/>
<path fill-rule="nonzero" fill="rgb(74.509804%, 74.509804%, 74.509804%)" fill-opacity="1" d="M 601.71875 350.554688 L 683.945312 350.554688 L 683.945312 326.757812 L 601.71875 326.757812 Z M 601.71875 350.554688 "/>
<path fill-rule="nonzero" fill="rgb(0%, 39.215686%, 0%)" fill-opacity="1" d="M 601.71875 324.113281 L 687.695312 324.113281 L 687.695312 300.316406 L 601.71875 300.316406 Z M 601.71875 324.113281 "/>
</svg>
